<svg xmlns="http://www.w3.org/2000/svg" enable-background="new 0 0 96 96" viewBox="0 0 96 96" id="campaign"><path d="M77 34.5V13.7c0-1.8-1.4-3.2-3.2-3.2h-.6c-1.8 0-3.2 1.5-3.2 3.2v1c-9.4 4.6-20 9.7-27.6 13.5-.4-.6-1.2-1-2-.8C24.7 31 33.3 29 19.7 32.2c-1.9.4-3.3 2.1-3.5 4.1H11c-1.7 0-3 1.3-3 3v5.6c0 1.7 1.3 3 3 3h5.2c.1 2 1.5 3.6 3.5 4.1l3.9.9v1.5c-8.1.2-8.4 6.2-15.5 6.2H1c-.6 0-1 .4-1 1v21c0 .6.4 1 1 1 9.1 0 10-.2 15.1 1.1 4.6 1.1 7.1.9 18.1.9 2 0 3.6-1.6 3.6-3.5 0-.8.1-1.4-.3-2.2 1.9 0 3.5-1.6 3.5-3.5v-.7c0-.8-.3-1.6-.8-2.2.9-.7 1.4-1.7 1.4-2.8 0-1 .1-2.1-1.1-3.2 1.1-1.1 1.1-2.2 1.1-3.2 0-1.9-1.6-3.5-3.5-3.5h-1.9v-4.8l4.2 1c.8.1 1.6-.2 2-.8 22 10.8 9 4.4 27.6 13.5v1c0 1.8 1.4 3.2 3.2 3.2.4 0 .2 0 .6 0 1.8 0 3.2-1.5 3.2-3.3V49.7c4.2-.7 7-4.7 6.3-8.9C82.7 37.5 80.2 35 77 34.5zM33.3 31.1v12.5l-7.7-1.8v-9C28 32.3 26.4 32.7 33.3 31.1zM10 44.9v-5.6c0-.6.4-1 1-1h5.2v7.6H11C10.5 45.9 10 45.4 10 44.9zM15.5 82.4c-4.4-1.1-7.1-.9-13.5-.9v-19h6.1c2.7 0 5.3-.9 7.5-2.6 2.1-1.7 4.1-3.5 8-3.6h2.3c2.2 0 4.1 1.8 4.2 4 0 0 0 7.7 0 7.7.1.5-.6 1.6-1.8 1.6-1 0-1.9-.8-1.9-1.9v-6.5l0 0c0-.6-.4-1-1-1s-1 .4-1 1c0 4.4-3.6 7.9-7.9 7.9-.6 0-1 .4-1 1s.4 1 1 1c3.2 0 6.1-1.5 8-4 0 .8 0 1.6.6 2.6v.6c0 1.1.5 2.1 1.4 2.8-.5.6-.8 1.4-.8 2.2 0 1-.1 1.6.4 2.5-1.4.5-2.4 1.8-2.4 3.3 0 .8 0 1.4.3 2.2C20.9 83.5 19.6 83.4 15.5 82.4zM37.7 68.3c1.1 0 2 1 1.9 2.1-.2 1-1 1.7-2 1.7h-9.2c-.4 0-.7-.1-1-.4 2.2.5 4.4-1.1 4.6-3.3H37.7zM27 83.5c-.8 0-1.5-.7-1.5-1.5v-.7c0-.8.7-1.5 1.5-1.5H34c1 0 1.9.8 1.9 1.9.1.8-.8 1.9-2 1.9L27 83.5zM39 76.2c0 .8-.6 1.5-1.4 1.5H29c-.8 0-1.5-.7-1.5-1.5v-.7c0-.8.7-1.5 1.5-1.5.8 0-3.1 0 8.6 0 .8.1 1.4.7 1.4 1.6L39 76.2zM39.6 64.2c.1 1.2-.8 2.1-1.9 2.1H32v-3.8h5.5C38.6 62.5 39.4 63.2 39.6 64.2L39.6 64.2zM34.2 60.4H32c-.1-3.1-2.5-6-6.5-6v-1.1l8.7 2L34.2 60.4zM20.1 50c-1.1-.3-1.9-1.3-1.9-2.4v-11c0-1.2.8-2.2 2-2.4l3.5-.8v9.3c0 .5.3.9.8 1 10.3 2.4 9.7 2.3 9.9 2.2.6 0 1-.5 1-1V30.6c4.9-1.2 3.7-.9 5.5-1.3 0 4.7.1 20.8.1 25.5C32.3 52.9 49.4 56.8 20.1 50zM42.8 30.2l14.1-6.9v37.5l-14.1-6.9L42.8 30.2zM58.9 61.8V22.3L70 16.9v50.3L58.9 61.8zM75 70.4c0 .7-.5 1.2-1.2 1.2.1 0-.5 0-.6 0-.7 0-1.2-.6-1.2-1.2V13.7c0-.7.6-1.2 1.2-1.2h.6c.6 0 1.2.6 1.2 1.2V70.4zM77 47.6V36.5c3.1.7 5 3.8 4.2 6.9C80.7 45.5 79.1 47.1 77 47.6zM90.6 28.3c-.4-.4-1-.4-1.4-.1s-.4 1-.1 1.4l0 0c6.5 7 6.5 17.9 0 24.9-.4.4-.4 1 .1 1.4s1 .4 1.4-.1C97.8 48.1 97.8 36.1 90.6 28.3z" fill="#ffffff"/><path d="M85.6,32.9c-0.4-0.4-1-0.4-1.4-0.1s-0.4,1-0.1,1.4c4.1,4.4,4.1,11.2,0,15.6c-0.6,0.6-0.1,1.7,0.7,1.7   c0.3,0,0.5-0.1,0.7-0.3C90.4,46.1,90.4,38.1,85.6,32.9z" fill="#ffffff"/></svg>