<svg xmlns="http://www.w3.org/2000/svg" viewBox="0 0 32 32" id="payment"><path d="M30,10.05H26.19a1,1,0,0,0-1,1v.79H23.51L20.68,9a5.55,5.55,0,0,0-7.86,0l-2.34,2.34H2a1,1,0,0,0-1,1V17H1v6.55a1,1,0,0,0,1,1H19.06a1,1,0,0,0,1-1V19.75h1.51a4,4,0,0,0,3,1.4h.58v.8a1,1,0,0,0,1,1H30a1,1,0,0,0,1-1V11.05A1,1,0,0,0,30,10.05ZM10.87,13.36h7.2v1.58h-2.6a2.4,2.4,0,0,0-2,1.11H3V13.36Zm7.2,9.25H3V18H13.17a2.4,2.4,0,0,0,2.29,1.71h2.6Zm6.55-3.46a2,2,0,0,1-1.69-.93,1,1,0,0,0-.85-.47H15.46a.41.41,0,1,1,0-.81h6.61a1,1,0,0,0,0-2h-2V12.36a1,1,0,0,0-1-1H13.32l.92-.92a3.64,3.64,0,0,1,5,0l3.12,3.12a1,1,0,0,0,.71.29h2.1v5.31ZM29,20.95H27.19V12.05H29Z" data-name="Layer 3" fill="#ffffff"/></svg>