<svg xmlns="http://www.w3.org/2000/svg" width="32" height="32" id="find"><path style="line-height:normal;text-indent:0;text-align:start;text-decoration-line:none;text-decoration-style:solid;text-decoration-color:#000;text-transform:none;block-progression:tb;white-space:normal;isolation:auto;mix-blend-mode:normal;solid-color:#000;solid-opacity:1" d="M18.271.004a9.758 9.758 0 0 0-8.71 4.873c-2.179 3.774-1.543 8.409 1.252 11.465l-1.926 3.334a.5.5 0 0 0 .183.683l.203.118-1.013 1.757.867.5 1.014-1.757 2.086 1.207L7.484 30.4a1.192 1.192 0 0 1-1.646.442 1.192 1.192 0 0 1-.44-1.647l1.305-2.261.68-1.176.172-.301-.866-.498-.173.299-.68 1.176-1.305 2.261a2.21 2.21 0 0 0 .807 3.012A2.21 2.21 0 0 0 8.35 30.9l4.742-8.216.205.117a.5.5 0 0 0 .683-.184l1.926-3.336c4.043.891 8.373-.873 10.551-4.646 2.69-4.662 1.088-10.637-3.572-13.328A9.696 9.696 0 0 0 18.27.004zm-.029.994a8.72 8.72 0 0 1 4.143 1.174 8.752 8.752 0 0 1 3.205 11.963 8.745 8.745 0 0 1-11.96 3.203 8.749 8.749 0 0 1-3.202-11.961A8.745 8.745 0 0 1 18.242.998zm-.25.707a8.02 8.02 0 0 0-4.174 1.178l.52.851a7.044 7.044 0 0 1 9.185 1.63 7.047 7.047 0 0 1-.47 9.318 7.041 7.041 0 0 1-9.301.695 7.048 7.048 0 0 1-1.848-9.147l-.867-.5a8.06 8.06 0 0 0 2.11 10.444 8.053 8.053 0 0 0 10.62-.793 8.06 8.06 0 0 0-1.68-12.567 8.079 8.079 0 0 0-4.095-1.109zM11.55 17.066a9.77 9.77 0 0 0 3.361 1.942l-1.547 2.676-3.36-1.94 1.546-2.678zM7.316 23.87l-.295.512.866.5.297-.512-.868-.5z" color="#000" enable-background="accumulate" font-family="sans-serif" font-weight="400" overflow="visible"></path></svg>