<svg xmlns="http://www.w3.org/2000/svg" enable-background="new 0 0 24 24" viewBox="0 0 24 24" id="withdrawal"><path d="M19,3H5C3.3457,3,2,4.3457,2,6v1c0,1.6543,1.3457,3,3,3v9c0,1.6543,1.3457,3,3,3h8c1.6543,0,3-1.3457,3-3v-9    c1.6543,0,3-1.3457,3-3V6C22,4.3457,20.6543,3,19,3z M17,9v10c0,0.5513-0.4482,1-1,1H8c-0.5518,0-1-0.4487-1-1V9V8h10V9z M20,7    c0,0.5513-0.4482,1-1,1V7c0-0.5522-0.4473-1-1-1H6C5.4473,6,5,6.4478,5,7v1C4.4482,8,4,7.5513,4,7V6c0-0.5513,0.4482-1,1-1h14    c0.5518,0,1,0.4487,1,1V7z" fill="#ffffff"/><path d="M12.667,16H10c-0.5527,0-1,0.4478-1,1s0.4473,1,1,1h1c0,0.5522,0.4473,1,1,1s1-0.4478,1-1v-0.0361    c1.1277-0.175,2-1.2076,2-2.4639c0-1.3784-1.0469-2.5-2.333-2.5h-1.334C11.1758,13,11,12.7861,11,12.5s0.1758-0.5,0.333-0.5H14    c0.5527,0,1-0.4478,1-1s-0.4473-1-1-1h-1c0-0.5522-0.4473-1-1-1s-1,0.4478-1,1v0.0361c-1.1277,0.175-2,1.2076-2,2.4639    c0,1.3784,1.0469,2.5,2.333,2.5h1.334C12.8242,15,13,15.2139,13,15.5S12.8242,16,12.667,16z" fill="#ffffff"/></svg>